<svg width="311" height="313" viewBox="0 0 311 313" fill="none" xmlns="http://www.w3.org/2000/svg">
<g style="mix-blend-mode:luminosity" opacity="0.1" filter="url(#filter0_f_253_100)">
<circle cx="155.48" cy="156.836" r="54.7697" fill="white"/>
</g>
<g opacity="0.2" filter="url(#filter1_f_253_100)">
<path d="M100.382 123.148C100.382 110.778 110.272 100.75 122.473 100.75H188.747C200.948 100.75 210.839 110.778 210.839 123.148V190.343C210.839 202.713 200.948 212.741 188.747 212.741H122.473C110.272 212.741 100.382 202.713 100.382 190.343V123.148Z" fill="#01DAFE"/>
</g>
<path d="M100.382 123.148C100.382 110.778 110.272 100.75 122.473 100.75H188.747C200.948 100.75 210.839 110.778 210.839 123.148V190.343C210.839 202.713 200.948 212.741 188.747 212.741H122.473C110.272 212.741 100.382 202.713 100.382 190.343V123.148Z" fill="#01DAFE"/>
<g filter="url(#filter2_f_253_100)">
<path d="M100.382 123.148C100.382 110.778 110.272 100.75 122.473 100.75H188.747C200.948 100.75 210.839 110.778 210.839 123.148V190.343C210.839 202.713 200.948 212.741 188.747 212.741H122.473C110.272 212.741 100.382 202.713 100.382 190.343V123.148Z" fill="#F72585" fill-opacity="0.5"/>
</g>
<path d="M79 104.398C79 92.028 88.8907 82 101.091 82H167.366C179.566 82 189.457 92.028 189.457 104.398V171.593C189.457 183.963 179.566 193.991 167.366 193.991H101.091C88.8907 193.991 79 183.963 79 171.593V104.398Z" fill="#F72585"/>
<defs>
<filter id="filter0_f_253_100" x="0.710571" y="2.06616" width="309.539" height="309.54" filterUnits="userSpaceOnUse" color-interpolation-filters="sRGB">
<feFlood flood-opacity="0" result="BackgroundImageFix"/>
<feBlend mode="normal" in="SourceGraphic" in2="BackgroundImageFix" result="shape"/>
<feGaussianBlur stdDeviation="50" result="effect1_foregroundBlur_253_100"/>
</filter>
<filter id="filter1_f_253_100" x="0.381592" y="0.75" width="310.457" height="311.991" filterUnits="userSpaceOnUse" color-interpolation-filters="sRGB">
<feFlood flood-opacity="0" result="BackgroundImageFix"/>
<feBlend mode="normal" in="SourceGraphic" in2="BackgroundImageFix" result="shape"/>
<feGaussianBlur stdDeviation="50" result="effect1_foregroundBlur_253_100"/>
</filter>
<filter id="filter2_f_253_100" x="0.381592" y="0.75" width="310.457" height="311.991" filterUnits="userSpaceOnUse" color-interpolation-filters="sRGB">
<feFlood flood-opacity="0" result="BackgroundImageFix"/>
<feBlend mode="normal" in="SourceGraphic" in2="BackgroundImageFix" result="shape"/>
<feGaussianBlur stdDeviation="50" result="effect1_foregroundBlur_253_100"/>
</filter>
</defs>
</svg>
